<svg xmlns="http://www.w3.org/2000/svg" viewBox="0 0 100 120">
  <defs>
    <linearGradient id="syrupGradient" x1="0%" y1="0%" x2="100%" y2="100%">
      <stop offset="0%" style="stop-color:#d97706"/>
      <stop offset="50%" style="stop-color:#92400e"/>
      <stop offset="100%" style="stop-color:#78350f"/>
    </linearGradient>
    <linearGradient id="glassGradient" x1="0%" y1="0%" x2="100%" y2="0%">
      <stop offset="0%" style="stop-color:rgba(255,255,255,0.3)"/>
      <stop offset="50%" style="stop-color:rgba(255,255,255,0.1)"/>
      <stop offset="100%" style="stop-color:rgba(255,255,255,0.3)"/>
    </linearGradient>
  </defs>
  <!-- Bottle body -->
  <path
    d="M25 35 L25 100 Q25 110 35 110 L65 110 Q75 110 75 100 L75 35 Q75 30 70 30 L60 30 L60 15 Q60 10 55 10 L45 10 Q40 10 40 15 L40 30 L30 30 Q25 30 25 35"
    fill="url(#syrupGradient)"
    stroke="#78350f"
    stroke-width="2"
  />
  <!-- Glass shine effect -->
  <path
    d="M30 40 L30 95 Q30 100 35 100 L40 100 L40 40 Z"
    fill="url(#glassGradient)"
  />
  <!-- Cap -->
  <rect x="38" y="5" width="24" height="8" fill="#4a2c2a" rx="2"/>
  <!-- Label -->
  <rect x="30" y="55" width="40" height="25" fill="#fffef5" rx="3"/>
  <!-- Maple leaf on label -->
  <path
    d="M50 60 L52 65 L58 63 L55 68 L62 72 L55 74 L57 80 L50 76 L43 80 L45 74 L38 72 L45 68 L42 63 L48 65 Z"
    fill="#c8102e"
  />
</svg>
